<svg xmlns="http://www.w3.org/2000/svg" width="152.96mm" height="124.26mm" viewBox="0 0 433.6 352.23">
  <defs>
    <style>
      .cls-1 {
        fill: #fff;
      }

      .cls-10, .cls-11, .cls-2 {
        fill: #333d47;
      }

      .cls-3 {
        fill: #ea6029;
      }

      .cls-4 {
        fill: #c3c1c3;
      }

      .cls-5 {
        fill: #f4a737;
      }

      .cls-6 {
        fill: #868787;
      }

      .cls-7 {
        fill: #c95035;
      }

      .cls-8 {
        fill: #f26330;
      }

      .cls-9 {
        fill: #f8743f;
      }

      .cls-10 {
        opacity: 0.08;
      }

      .cls-11 {
        opacity: 0.12;
      }

      .cls-12 {
        fill: #1d1d1b;
      }

      .cls-13 {
        fill: #3da639;
        stroke: #2d682a;
        stroke-linecap: round;
        stroke-linejoin: round;
        stroke-width: 3.52px;
      }
    </style>
  </defs>
  <title>Rico_os</title>
  <g id="Ebene_3_Kopie" data-name="Ebene 3 Kopie">
    <g>
      <path class="cls-1" d="M216.42,246.24s20.33,8.55,29.51,9.55,17.49,1.32,17.49,1.32,6.08,6.08,12.79,5.12S288.12,255,288.12,255l8.38-.53a21.88,21.88,0,0,0,15.84,1c5-1.72,9.91-9.91,9.91-9.91s17.65-6.47,24-25.9c9.91-30.37-3.17-53.67-7-59.47s-13.75-22.38-13.75-22.38-24-5.76-35.17-5.76-61.71,39.33-61.71,39.33.32,45.08-.32,52.76S216.42,246.24,216.42,246.24Z"/>
      <path class="cls-2" d="M315.08,31.92s-17.74-18.24-44.95-13.15c-25.39,4.75-37.74,22.78-33.39,59.71,3.86,32.79,11.91,34.48,10.09,50.23-2.34,20.35-28.87,35-28.87,35l11.1,27s26.05-12.95,31.36-18.88c5.47-6.11,12.41-23.21,36.68-30.9,22.31-7.07,32.76,1.66,32,1.66s-7.75-11.77-9.43-21.76-.49-22.38-.49-22.38Z"/>
      <path class="cls-1" d="M307.58,45.43s-11.81-23.54-35.51-23c-21.85.47-31.71,23.92-31.26,42.09.44,17.38,13.83,36,40.73,38.3,21.38,1.8,31.56-4.53,31.56-4.53l1.24-34.51Z"/>
      <path class="cls-1" d="M304.28,31.5s25-1.87,40.08,4.87c16.67,7.48,28,36.81,28,36.81s-23.11,6.55-36.55,6.42-32.21-8.38-32.21-8.38,9.62,13.6,29.91,15.25,32.36-3.75,32.36-3.75-9.05,17.21-22.2,18.92-32.41-1.52-32.41-1.52l-2.91-1.56,3-16.35L301,69.14l10.51-1.68s-.66-14.69-2-18.89S304.28,31.5,304.28,31.5Z"/>
      <path class="cls-3" d="M303.93,256.66s-8.83,14.54-15.61,16.89S271,276.46,271,276.46s-1.73-5.34-4.1-5.27-6,10.95-7.78,23.95-1,22.14.46,26.69,11.69,14.84,11.69,14.84l28-9s-19.8-12.73-23.4-19.1S270.66,283,270.66,283s12.38.19,19.41-3,14.42-12.27,14.42-12.27,5.77-10.95,5-10.93S303.93,256.66,303.93,256.66Z"/>
      <path class="cls-3" d="M272.37,262.62l5.52-1.13L289,292.11l7.27,16.11s14.23,1.47,27.93,2.14,34.24.19,34.24.19l-19.86,15.84s-21.09-1.94-35.87-5.57-19-6.81-18.52-8.44,4.71-3.55,4.71-3.55-5.7-17.2-8.92-24.17S272.37,262.62,272.37,262.62Z"/>
      <path class="cls-2" d="M336.61,154.75s15.31,2.14,23.94-1.51,10.13-5.71,10.62-8.26,5.26-34.2,9.59-34.75,9.57,13.92,9.11,19-4.4,19.66-4.4,19.66,14.75-3.71,22.46,3.86,4.5,16.26,4.5,16.26,8.79,12.66,5.27,17.53-7.08,5.68-7.08,5.68-2.44,11-12.85,14.9-26.73,2.3-28.28.54,1.49-4.6,1.49-4.6l-10.47-1.43a71.08,71.08,0,0,1-9.95-1.94s-2.53-18.28-5.67-26.91A155.7,155.7,0,0,0,336.61,154.75Z"/>
      <path class="cls-4" d="M317.41,82.15l-6.14,18,5.54,1.26a48.9,48.9,0,0,0,8.63-6.67,50.48,50.48,0,0,0,6.24-8Z"/>
      <path class="cls-4" d="M313,31.42s7.44,6.24,13.62,18.82S335,78.55,335,78.55s-7.11.07-10.53-.16-9-2.54-9-2.54-.14-14-1.25-19.74-7.87-24.36-7.87-24.36Z"/>
      <path class="cls-5" d="M306.39,31.75s7.8,17.77,9.45,24.87-.33,19.23-.33,19.23l-13.23-5.67s4.6,4.58,6.34,6a102.79,102.79,0,0,0,8.79,5.93s-1.24,7.12-2.79,10.3-3.35,7.67-3.35,7.67l-4.21.56s4.88-12.69,3.28-15.3-10.07-6.22-12-10.68-.63-10,2.27-10.3,9.15,4.58,10.19,3.25-.32-17.77-1.66-20.39-4.9-15.76-4.9-15.76Z"/>
      <path class="cls-6" d="M316.14,31.91s10.12,12.49,15.23,23.76A128.47,128.47,0,0,1,339,78.25l18.42-1.76S352,62.11,345.83,51.37s-16.25-18.8-16.25-18.8Z"/>
      <path class="cls-6" d="M320.51,101.87a96.07,96.07,0,0,0,9.15-6.41,31.64,31.64,0,0,0,7-8.5l14.21-.4a51.07,51.07,0,0,1-7,8.76c-5,4.52-13.1,7.24-13.1,7.24Z"/>
      <path class="cls-3" d="M333.27,33.85s10.9,10.9,17.06,21.11a145.16,145.16,0,0,1,10.21,21l11.83-2.75s-12.66-29.32-22.72-34.75S333.27,33.85,333.27,33.85Z"/>
      <path class="cls-3" d="M336.84,102.23a42.86,42.86,0,0,0,10.46-6.68,32.79,32.79,0,0,0,7.55-9.3l11-3.53s-4.1,9.16-10.43,13.51C345.8,102.86,336.84,102.23,336.84,102.23Z"/>
      <path class="cls-7" d="M302.28,70.18s14.91,15.29,29.4,16.57,34.2-4,34.2-4-10.74-.72-16.94-1.17a51.7,51.7,0,0,1-10.85-2S322.6,78.71,318,77.73,302.28,70.18,302.28,70.18Z"/>
      <path class="cls-8" d="M285.37,53.12c.09,9-6.2,15.39-14,15.47S257.11,62.42,257,53.4s6.19-16.4,14-16.48S285.28,44.09,285.37,53.12Z"/>
      <ellipse class="cls-9" cx="273.53" cy="51.43" rx="9.77" ry="11.78" transform="translate(-4.79 49.44) rotate(-10.24)"/>
      <path class="cls-10" d="M321.55,139.22s19.42,28.68,16.39,61.6c-3.31,35.89-62,39.55-62,39.55l-5.49,22.54a15.07,15.07,0,0,0,8.48-1.57,50.69,50.69,0,0,0,9.23-6.32l8.72-.76s7.08,2.28,10.43,2.58S318.65,253.38,319,252a31.07,31.07,0,0,1,2.63-5.06s22-16.67,26.24-28.12,5.52-18.52,4.82-21.86-5.77-26.85-10.41-34.47-13.31-22-13.31-22Z"/>
      <path class="cls-10" d="M259.46,168.88s.86,27.55,4.65,33.34c7.08,10.83,11.22,18.94,14.5,28.43a19.68,19.68,0,0,1,1.07,9.31l-5,.15s-1.55-11.46-6.33-19.47-11-22.42-11.62-27.09C255.32,183.2,259.46,168.88,259.46,168.88Z"/>
      <path class="cls-10" d="M239.29,69.22s4.26,22.78,23.14,31.32,45.66,1.22,45.66,1.22-32.55,0-47.42-9.93A67.81,67.81,0,0,1,239.29,69.22Z"/>
      <path class="cls-11" d="M227.11,250.09a63,63,0,0,0,18.82,5.7,81.33,81.33,0,0,0,18.63,1l-1.71-18.06-30.8-1.33Z"/>
    </g>
  </g>
  <g id="Ebene_18" data-name="Ebene 18">
    <path class="cls-12" d="M312.13,31.4a33.8,33.8,0,0,0-4.93-4.34A44.38,44.38,0,0,0,289,19.21a51.23,51.23,0,0,0-6.65-.73,49.68,49.68,0,0,0-6.68.25,56.26,56.26,0,0,0-13,3,41,41,0,0,0-6.1,2.71A39.42,39.42,0,0,0,251,28.13a37.19,37.19,0,0,0-4.72,4.67,38.11,38.11,0,0,0-3.77,5.46c-4.4,7.75-6,16.82-6.12,25.71a105.18,105.18,0,0,0,3.33,26.58c2.15,8.72,5.07,17.29,7,26.26a62.75,62.75,0,0,1,1.62,13.8,26.32,26.32,0,0,1-.27,3.59,22.15,22.15,0,0,1-.85,3.53,27.48,27.48,0,0,1-3.12,6.45,43.17,43.17,0,0,1-9.53,10.22,58.1,58.1,0,0,1-5.63,4,57.39,57.39,0,0,1-6.05,3.37L222,160a74.63,74.63,0,0,0,10.84-7.69,45.41,45.41,0,0,0,8.7-9.76,25.24,25.24,0,0,0,2.74-5.75,19.37,19.37,0,0,0,.71-3.06,27,27,0,0,0,.24-3.17,59.85,59.85,0,0,0-1.42-13.13c-.9-4.37-2.08-8.72-3.27-13.08s-2.37-8.76-3.37-13.21a107,107,0,0,1-2.87-27.22,68.87,68.87,0,0,1,1.77-13.63,58.48,58.48,0,0,1,2-6.6,46.93,46.93,0,0,1,3-6.24,39.79,39.79,0,0,1,4-5.65,38.22,38.22,0,0,1,5-4.8,41.72,41.72,0,0,1,12.07-6.58,54.17,54.17,0,0,1,27.09-2.63,47.81,47.81,0,0,1,13.06,4.3,43,43,0,0,1,11.33,8Z"/>
    <path class="cls-12" d="M311.12,98.59a54.34,54.34,0,0,0,7.49,1.89,72.26,72.26,0,0,0,7.77.94,69.42,69.42,0,0,0,15.64-.69c1.28-.23,2.62-.4,3.82-.72a20.92,20.92,0,0,0,3.56-1.33,28.71,28.71,0,0,0,6.37-4.34,48.57,48.57,0,0,0,9.7-12.24l.79.79h0a51.8,51.8,0,0,1-17,4.51c-1.46.19-2.93.25-4.39.35s-2.94.07-4.41,0l-2.19-.08-2.2-.17c-.73,0-1.46-.12-2.19-.22s-1.46-.18-2.18-.31a50.37,50.37,0,0,1-16.62-5.66,37.38,37.38,0,0,1-12.94-11.66l-.15-.23.24.15a57.4,57.4,0,0,0,16.48,6.85,54.24,54.24,0,0,0,17.55,1.34c6-.37,11.92-1.1,17.86-1.93s11.89-1.87,17.8-3h0l-.47.79a74.77,74.77,0,0,0-9-20.45,50.43,50.43,0,0,0-7-8.7,40.16,40.16,0,0,0-4.2-3.61A33.19,33.19,0,0,0,346.6,38c-.8-.45-1.67-.76-2.51-1.14s-1.7-.65-2.61-.89l-2.69-.78c-.9-.25-1.81-.44-2.72-.66A91.47,91.47,0,0,0,325,32.67a109.44,109.44,0,0,0-22.38-.14l-.28-2.28a111.48,111.48,0,0,1,22.89.38,91.72,91.72,0,0,1,11.27,2c.93.24,1.86.44,2.78.71l2.75.82c.92.26,1.83.65,2.74,1s1.8.75,2.64,1.24a34.81,34.81,0,0,1,4.92,3.1,42.76,42.76,0,0,1,4.35,3.82,51.93,51.93,0,0,1,7.09,9,71.4,71.4,0,0,1,5.27,10.16,75.27,75.27,0,0,1,3.71,10.84l.15.63-.63.16h0a130.12,130.12,0,0,1-17.68,4.5,139.9,139.9,0,0,1-18.15,2.22,52.53,52.53,0,0,1-9.29-.2,49.2,49.2,0,0,1-9.08-2,43.5,43.5,0,0,1-15.91-9l.09-.08a34.47,34.47,0,0,0,6.15,6,43,43,0,0,0,7.25,4.62,49.29,49.29,0,0,0,7.93,3.25A60.12,60.12,0,0,0,332,85.38a72.37,72.37,0,0,0,17.15.41,64.13,64.13,0,0,0,8.49-1.36,46.94,46.94,0,0,0,8.13-2.59h0l1.67-.84-.87,1.64a49.87,49.87,0,0,1-9.7,12.85,30,30,0,0,1-6.64,4.76,23.11,23.11,0,0,1-3.85,1.55c-1.36.39-2.66.57-4,.85a72.36,72.36,0,0,1-16.1,1.1,64.28,64.28,0,0,1-16-2.61Z"/>
    <path class="cls-12" d="M320,102.32a49.17,49.17,0,0,0-.31,12.37,43.86,43.86,0,0,0,2.86,12,103.49,103.49,0,0,0,5.7,11.2L334.58,149a173,173,0,0,1,11.28,23.09,89.11,89.11,0,0,1,3.78,12.39,66.11,66.11,0,0,1,1.54,12.93,57.25,57.25,0,0,1-5.42,25.38A54.94,54.94,0,0,1,329.41,243a51.38,51.38,0,0,1-11.35,6.48,77.36,77.36,0,0,1-12.28,4.12c-8.38,1.92-17.07,3.07-25.58,1.7,4.27-.31,8.46-.81,12.63-1.46a98.31,98.31,0,0,0,12.3-2.68,90.69,90.69,0,0,0,11.79-4.29,48.75,48.75,0,0,0,10.69-6.23,52.89,52.89,0,0,0,15.49-19.08,54.49,54.49,0,0,0,5.19-24.08,62.81,62.81,0,0,0-1.44-12.36,85.24,85.24,0,0,0-3.64-12,170.86,170.86,0,0,0-11-22.74l-6.3-11.09a103.91,103.91,0,0,1-5.74-11.58,46.24,46.24,0,0,1-2.9-12.76,51.59,51.59,0,0,1,.47-13.06Z"/>
    <path class="cls-12" d="M366,82.42c-4.72,0-9.44,0-14.17-.29a107.56,107.56,0,0,1-14.16-1.64l.43-2a103.77,103.77,0,0,0,13.82,2.55c4.67.55,9.38.87,14.08,1.23Z"/>
    <path class="cls-12" d="M335.83,152.2a51.94,51.94,0,0,0,14.37,1.56,35.21,35.21,0,0,0,13.92-3.09,12,12,0,0,0,5.19-4.28,29.33,29.33,0,0,0,2.45-6.7c1.23-4.73,2.07-9.6,3-14.45.47-2.43.91-4.87,1.46-7.3.28-1.22.58-2.43,1-3.64a12.58,12.58,0,0,1,1.64-3.6,3,3,0,0,1,2.06-1.28,3.19,3.19,0,0,1,2.25.85,12.16,12.16,0,0,1,2.44,3.15,41.59,41.59,0,0,1,3.1,6.93,51.35,51.35,0,0,1,2,7.32,24.77,24.77,0,0,1,.18,7.78,26.7,26.7,0,0,1-2.07,7.44,23,23,0,0,1-4.14,6.46h0l-.62-1.06a50.57,50.57,0,0,1,7.37-.46,48.36,48.36,0,0,1,7.39.54,28.27,28.27,0,0,1,7.27,2.08,16.93,16.93,0,0,1,3.36,2,15.08,15.08,0,0,1,2.78,2.81,17.23,17.23,0,0,1,2.08,3.32,10.79,10.79,0,0,1,1.09,4,9.42,9.42,0,0,1-.67,4.17,12.94,12.94,0,0,1-2.15,3.46,22,22,0,0,1-2.77,2.7c-.5.42-1,.78-1.51,1.18a15.76,15.76,0,0,1-1.71,1.05,42.85,42.85,0,0,1-7,2.82,55.63,55.63,0,0,1-14.63,2.6,25.42,25.42,0,0,1-7.57-.82,12,12,0,0,1-3.63-1.69,3.88,3.88,0,0,1-1.53-2,2.89,2.89,0,0,1,0-1.43,3.86,3.86,0,0,1,.48-1.15,10.26,10.26,0,0,1,2.94-2.75,28.55,28.55,0,0,1,3.24-1.87c2.21-1.11,4.47-2,6.74-2.92a142.82,142.82,0,0,1,13.92-4.36c-4.54,1.73-9.06,3.48-13.43,5.53a70.19,70.19,0,0,0-6.42,3.25,30,30,0,0,0-3,1.91,8.5,8.5,0,0,0-2.26,2.26,1.13,1.13,0,0,0-.17.9,2,2,0,0,0,.75.77,9.34,9.34,0,0,0,3,1.26,23.28,23.28,0,0,0,6.85.51,55.31,55.31,0,0,0,13.88-2.71,40.33,40.33,0,0,0,6.48-2.64,14.87,14.87,0,0,0,1.38-.86c.43-.31.92-.71,1.35-1.07a21,21,0,0,0,2.45-2.34,7.83,7.83,0,0,0,2.21-5.61,11.39,11.39,0,0,0-2.5-5.87c-2.56-3.65-7.12-5.41-11.7-6.34a57.26,57.26,0,0,0-14.22-.91l-1.5.08.89-1.13h0a50.08,50.08,0,0,0,4.44-13.5,26.74,26.74,0,0,0,.06-7,51.63,51.63,0,0,0-1.5-7.06,37.21,37.21,0,0,0-2.54-6.75,10.06,10.06,0,0,0-1.94-2.78c-.85-.71-1.37-.71-2.06.14a10.63,10.63,0,0,0-1.41,3.12c-.37,1.15-.66,2.33-.94,3.52-.55,2.39-1,4.81-1.41,7.24-.85,4.86-1.59,9.76-2.75,14.62a31.15,31.15,0,0,1-2.51,7.22,13.73,13.73,0,0,1-5.95,5.18A37.29,37.29,0,0,1,350.29,156a53.85,53.85,0,0,1-15-1.48Z"/>
    <path class="cls-12" d="M269.74,260.11a9.65,9.65,0,0,0,4.43.72,16.25,16.25,0,0,0,4.37-.89,13.41,13.41,0,0,0,3.85-2.09,10.27,10.27,0,0,0,2.71-3.22l2.46,1.72a16.74,16.74,0,0,1-3.94,3.28,19.85,19.85,0,0,1-4.53,2,26.15,26.15,0,0,1-4.78.9c-1.62.18-3.22.28-4.91.56Z"/>
    <path class="cls-12" d="M297.62,253.49s.08.13.15.2.17.18.25.27a6,6,0,0,0,.62.48,7.77,7.77,0,0,0,1.45.79,11.69,11.69,0,0,0,3.35.84,19.81,19.81,0,0,0,7.12-.71,14.29,14.29,0,0,0,6.21-3.32,9.26,9.26,0,0,0,2.68-4.27c.06-.27.13-.53.17-.79a3.76,3.76,0,0,0,.05-.69l3,.33a6.87,6.87,0,0,1-.36,1.13c-.13.34-.28.66-.43,1a14.27,14.27,0,0,1-1.08,1.78,13.65,13.65,0,0,1-2.79,2.93c-.51.44-1.08.77-1.62,1.16s-1.14.67-1.74.92a21,21,0,0,1-3.64,1.36,27.64,27.64,0,0,1-7.66,1.09,17.56,17.56,0,0,1-4-.54,12.64,12.64,0,0,1-2-.7c-.32-.15-.65-.32-1-.5l-.48-.31a4.75,4.75,0,0,1-.54-.43Z"/>
    <path class="cls-3" d="M273.8,265.48,272.69,262a2.41,2.41,0,0,1,1.67-1.58,11,11,0,0,1,3-.51l1.62,5.4Z"/>
    <path class="cls-12" d="M272.86,261.17,277,274c1.35,4.27,2.75,8.53,4.15,12.78.36,1.06.71,2.12,1.09,3.17l1.19,3.14,2.38,6.29a105.26,105.26,0,0,1,4.2,12.8,106.72,106.72,0,0,1-5.68-12.23l-2.56-6.24-1.29-3.12c-.41-1.05-.8-2.11-1.18-3.17-1.54-4.23-2.92-8.5-4.33-12.77s-2.73-8.55-4-12.86Z"/>
    <path class="cls-12" d="M278.05,259.07c1.35,4.3,2.76,8.61,4.18,12.89s3,8.53,4.6,12.71,3.48,8.38,5.14,12.59a83.33,83.33,0,0,1,4.21,13,112.58,112.58,0,0,1-6-12.23l-5.47-12.46c-1.78-4.22-3.27-8.53-4.71-12.85-.73-2.15-1.4-4.33-2-6.51s-1.28-4.36-1.85-6.57Z"/>
    <path class="cls-3" d="M301,261.53l2-4.64a8.51,8.51,0,0,1,3.46-1,3.45,3.45,0,0,1,2.94.89l-2.3,5Z"/>
    <polygon class="cls-3" points="274.33 276.63 287.03 273.9 289 279.88 276.24 282.72 274.33 276.63"/>
    <path class="cls-12" d="M304.31,256.75a34.67,34.67,0,0,1-2.69,5.13,33.83,33.83,0,0,1-3.41,4.67c-.6.75-1.3,1.43-2,2.14s-1.39,1.35-2.17,1.94a25.18,25.18,0,0,1-4.9,3.23,33.22,33.22,0,0,1-5.46,2,41.42,41.42,0,0,1-5.63,1.19,28.26,28.26,0,0,1-5.74.28,19.17,19.17,0,0,1-5.62-1.08,65.2,65.2,0,0,0,11.07-1,39.42,39.42,0,0,0,5.35-1.32,35.82,35.82,0,0,0,5.07-2,29.39,29.39,0,0,0,8.36-6.81,44.51,44.51,0,0,0,6.06-9.1Z"/>
    <path class="cls-12" d="M311.14,255.44a48.49,48.49,0,0,1-5.91,13A32.71,32.71,0,0,1,295,278.7a37,37,0,0,1-13.76,4.2,41.19,41.19,0,0,1-14.1-.56c2.35-.13,4.66-.31,7-.55a64,64,0,0,0,6.8-1,57.87,57.87,0,0,0,6.57-1.8l1.59-.58,1.55-.66a21.15,21.15,0,0,0,2.93-1.48,31.85,31.85,0,0,0,9.4-9.35,51.16,51.16,0,0,0,3.47-5.85,54.35,54.35,0,0,0,2.78-6.21Z"/>
    <path class="cls-12" d="M269.37,276.84a9.7,9.7,0,0,0-1.65-4.09,1.72,1.72,0,0,0-1.33-.75h0l.05,0s0,0,0,0a2.42,2.42,0,0,0-.25.27,6.35,6.35,0,0,0-.58.9,28.78,28.78,0,0,0-1.79,4.44c-.51,1.55-1,3.13-1.37,4.72a118.73,118.73,0,0,0-3.17,19.46c-.45,6.54-.48,13.18,1.67,19.19a31.79,31.79,0,0,0,4.39,8.43,30.54,30.54,0,0,0,3.05,3.68,27.26,27.26,0,0,0,3.55,3.13h0l-.92-.06c2.28-.93,4.54-1.77,6.83-2.6s4.58-1.62,6.88-2.39c4.63-1.52,9.29-2.87,14-4h0l-.18,1.15q-6.09-3.77-11.79-8.07a68.74,68.74,0,0,1-10.66-9.62c-.38-.49-.78-.9-1.15-1.46a11.91,11.91,0,0,1-.95-1.65,23.53,23.53,0,0,1-1.3-3.44,54.59,54.59,0,0,1-1.57-7.05,122,122,0,0,1-1.39-14.27l2-.05a122,122,0,0,0,1.18,14,55.32,55.32,0,0,0,1.43,6.84,22.21,22.21,0,0,0,1.16,3.21,10.48,10.48,0,0,0,.8,1.44c.28.45.7.9,1,1.35a67,67,0,0,0,10.28,9.52c3.71,2.9,7.59,5.62,11.56,8.15l1.26.81-1.45.34h0c-4.65,1.21-9.26,2.67-13.79,4.3q-3.4,1.23-6.77,2.55c-2.25.88-4.49,1.79-6.67,2.75l-.47.21-.45-.27h0a29.76,29.76,0,0,1-12.66-16.06,37,37,0,0,1-1.85-10.17,74.65,74.65,0,0,1,.25-10.15,113.1,113.1,0,0,1,3.58-19.84c.44-1.63.93-3.24,1.49-4.84a30.78,30.78,0,0,1,2-4.76,8.27,8.27,0,0,1,.8-1.19,3.6,3.6,0,0,1,.62-.61,2.28,2.28,0,0,1,.5-.29,1.55,1.55,0,0,1,.36-.1l.33,0a3.47,3.47,0,0,1,1.71.46,4.48,4.48,0,0,1,1.22,1.05,9,9,0,0,1,1.35,2.48,14.24,14.24,0,0,1,.7,2.6Z"/>
    <path class="cls-12" d="M288.66,309.42a6,6,0,0,0-3.29,1.41,3.85,3.85,0,0,0-.57.65c-.07.12-.17.25-.22.35a.7.7,0,0,0-.08.26,1.47,1.47,0,0,0,.57,1.13,11.63,11.63,0,0,0,3.13,1.95c1.17.53,2.39,1,3.62,1.44,2.48.87,5,1.59,7.58,2.23s5.14,1.28,7.73,1.8c5.19,1.07,10.44,1.89,15.69,2.71s10.53,1.52,15.8,2.15h0l-.83.31c1.55-1.54,3.13-3,4.77-4.43a50.86,50.86,0,0,1,5.16-4l2.74-1.71c.89-.57,1.77-1.18,2.64-1.79,1.74-1.23,3.46-2.51,5.13-3.84h0l.33.89c-10.55.22-21.09.4-31.66.28-5.29,0-10.57-.4-15.83-.84s-10.52-1-15.77-1.58l.16-1.28c5.22.62,10.47,1.18,15.71,1.64s10.49.84,15.75.91c10.53.16,21.08,0,31.62-.14l1.43,0-1.09.92h0c-1.65,1.41-3.31,2.76-5,4.08-.86.65-1.73,1.3-2.61,1.92l-2.66,1.81a49,49,0,0,0-4.83,4.08c-1.55,1.46-3.06,3-4.5,4.52l-.32.35-.51,0h0c-5.34-.49-10.64-1.08-15.94-1.85S311.9,324,306.66,322.9a104.76,104.76,0,0,1-15.52-4.46,34.48,34.48,0,0,1-3.73-1.69,13.1,13.1,0,0,1-3.47-2.49,3.88,3.88,0,0,1-.67-1,2.26,2.26,0,0,1-.15-1.42,2.07,2.07,0,0,1,.29-.66,4.42,4.42,0,0,1,.35-.47,6,6,0,0,1,.81-.79,6.71,6.71,0,0,1,4.08-1.31Z"/>
    <path class="cls-12" d="M307,100.26a84,84,0,0,0,3-10.72,14.52,14.52,0,0,0,.29-2.66,2.4,2.4,0,0,0-.21-1,4.09,4.09,0,0,0-.84-.81c-1.41-1.07-3.05-2-4.62-3a34.6,34.6,0,0,1-4.59-3.42,13,13,0,0,1-3.53-4.81,7.55,7.55,0,0,1-.5-3.13,8.82,8.82,0,0,1,.75-3A7.53,7.53,0,0,1,298.56,65a5.12,5.12,0,0,1,3.09-1.39,11.07,11.07,0,0,1,5.84,1.65c.85.43,1.68.94,2.42,1.29a2.83,2.83,0,0,0,.41.15h-.06a.69.69,0,0,0-.33.12c-.12.11-.09.11-.08.08a3.92,3.92,0,0,0,.22-1,30.56,30.56,0,0,0-.07-5.4c-.16-1.83-.38-3.67-.65-5.5A128.25,128.25,0,0,0,304,33.29a93.52,93.52,0,0,1,6.83,21.36c.36,1.85.66,3.71.86,5.59a32.27,32.27,0,0,1,.21,5.76,5.18,5.18,0,0,1-.37,1.68,1.57,1.57,0,0,1-.49.63,1.17,1.17,0,0,1-.64.26,2.25,2.25,0,0,1-.41,0,3.71,3.71,0,0,1-.91-.3c-.95-.44-1.71-.9-2.53-1.31a9.29,9.29,0,0,0-4.77-1.39c-1.47.08-2.56,1.25-3.22,2.82a6.05,6.05,0,0,0-.27,4.73,11.2,11.2,0,0,0,2.95,4.18,38.56,38.56,0,0,0,4.26,3.41c1.51,1.09,3.09,2,4.59,3.31a5,5,0,0,1,1.07,1.22,3.38,3.38,0,0,1,.29,1.67,14.11,14.11,0,0,1-.48,2.87,53.1,53.1,0,0,1-1.79,5.34C308.56,96.85,307.82,98.57,307,100.26Z"/>
    <ellipse class="cls-12" cx="271.3" cy="53.54" rx="7.09" ry="9.69" transform="translate(-3.04 18.82) rotate(-3.95)"/>
    <path class="cls-12" d="M285.89,53.11a16.52,16.52,0,0,1-4.1,11.15,14,14,0,0,1-4.9,3.5A15.65,15.65,0,0,1,271,69a14.31,14.31,0,0,1-5.93-1.24,14.47,14.47,0,0,1-4.9-3.64,16.9,16.9,0,0,1-4-11.4,19.46,19.46,0,0,1,1-6.09,17.92,17.92,0,0,1,3.07-5.43,15.48,15.48,0,0,1,4.93-3.93,13.71,13.71,0,0,1,6.21-1.34,14.16,14.16,0,0,1,10.78,5.76A18.74,18.74,0,0,1,285.89,53.11Zm-1,0A16.91,16.91,0,0,0,281,42.65a13.91,13.91,0,0,0-4.34-3.42A12.22,12.22,0,0,0,271.36,38a12.56,12.56,0,0,0-9.53,4.53,17,17,0,0,0-3.93,10.24,15.64,15.64,0,0,0,3.21,10.56,13.14,13.14,0,0,0,9.9,4.92,12.94,12.94,0,0,0,10.21-4.46A15.5,15.5,0,0,0,284.85,53.12Z"/>
    <path class="cls-12" d="M411.56,168.87a14.51,14.51,0,0,1,5.13,5.32,20.46,20.46,0,0,1,2.41,6.88c.09.6.14,1.2.21,1.8a7.17,7.17,0,0,1-.11,2.1,7.73,7.73,0,0,1-1.95,3.63,12.68,12.68,0,0,1-3,2.38A22.57,22.57,0,0,1,411,192.6a42.23,42.23,0,0,1-6.79,2.11c-2.28.54-4.59.94-6.9,1.25s-4.62.53-7,.67a53.65,53.65,0,0,1-7.06,0,49.8,49.8,0,0,1-7-1.08,33.93,33.93,0,0,1-6.79-2.23,13.65,13.65,0,0,1-3.2-2,6,6,0,0,1-1.34-1.68,4.43,4.43,0,0,1-.39-1.13,2,2,0,0,1-.05-.48,2.89,2.89,0,0,1,.08-.5,2.45,2.45,0,0,1,.39-.74,5.14,5.14,0,0,1,1.76-1.34,16.55,16.55,0,0,1,1.71-.73c1.13-.4,2.26-.72,3.39-1a125.9,125.9,0,0,1,13.62-2.44c4.57-.56,9.13-1.08,13.71-1.38-4.52.82-9,1.61-13.51,2.57s-9,1.89-13.28,3.19c-1.07.33-2.14.7-3.14,1.11a12.8,12.8,0,0,0-1.44.68,3.18,3.18,0,0,0-.95.72s0,.05,0,0,0-.05,0-.09,0-.11,0-.05a1.64,1.64,0,0,0,.2.48,3.51,3.51,0,0,0,.85.95,10.82,10.82,0,0,0,2.65,1.53,31.43,31.43,0,0,0,6.3,1.88,47.66,47.66,0,0,0,6.61.87,49.75,49.75,0,0,0,6.68-.07c2.25-.15,4.49-.4,6.72-.7a57.8,57.8,0,0,0,13-3.09,15.27,15.27,0,0,0,5.31-3.19,4.92,4.92,0,0,0,1.34-2.29,4.31,4.31,0,0,0,.11-1.32l-.14-1.62a18.07,18.07,0,0,0-1.83-6.12,15.3,15.3,0,0,0-1.77-2.65,11.38,11.38,0,0,0-2.26-2.1Z"/>
    <path class="cls-12" d="M411.24,191.8a12.44,12.44,0,0,1-1.37,5.43,18.86,18.86,0,0,1-1.41,2.38,23.4,23.4,0,0,1-1.73,2.09,29.52,29.52,0,0,1-8.68,6.19,28.93,28.93,0,0,1-5,1.84c-.85.27-1.74.4-2.61.6s-1.71.29-2.58.39a50.66,50.66,0,0,1-10.45.35,27.37,27.37,0,0,1-5.25-.91,13.27,13.27,0,0,1-2.6-1,5.59,5.59,0,0,1-2.28-2.14,2,2,0,0,1-.24-1.21,2.21,2.21,0,0,1,.42-1,4.51,4.51,0,0,1,1.21-1.1,13.62,13.62,0,0,1,2.44-1.23,43.73,43.73,0,0,1,4.92-1.65c3.3-.94,6.61-1.74,9.92-2.55s6.62-1.59,9.89-2.55c-6.32,2.59-12.95,4.35-19.33,6.59-1.59.57-3.17,1.17-4.66,1.85a12.46,12.46,0,0,0-2.08,1.15,2.79,2.79,0,0,0-.65.62s-.07.09-.05.1,0,0,0,0,0-.06,0,0a3.77,3.77,0,0,0,1.48,1.21,11.19,11.19,0,0,0,2.18.75,25.43,25.43,0,0,0,4.82.63,51.59,51.59,0,0,0,9.92-.53c.83-.11,1.64-.28,2.46-.42s1.59-.32,2.36-.58a33.82,33.82,0,0,0,4.56-1.71,26.79,26.79,0,0,0,7.9-5.53,13.22,13.22,0,0,0,4.13-8.1Z"/>
    <path class="cls-12" d="M351.21,198.49a29.06,29.06,0,0,0,4.93,1.84,51.59,51.59,0,0,0,5.29,1.07c1.79.24,3.6.41,5.42.5s3.65.12,5.44,0l.14,1.93c-1.91.16-3.76.21-5.65.19s-3.76-.12-5.64-.3a49.56,49.56,0,0,1-5.63-.9A31.39,31.39,0,0,1,350,201Z"/>
    <ellipse class="cls-1" cx="269.24" cy="50.03" rx="3.95" ry="2.79" transform="translate(191.76 312.69) rotate(-84.09)"/>
    <path class="cls-12" d="M262.5,258.42a40.48,40.48,0,0,1-5.24.15c-1.72,0-3.42-.18-5.11-.36a86.79,86.79,0,0,1-10-1.77,98.44,98.44,0,0,1-9.7-2.92c-1.6-.53-3.15-1.2-4.73-1.8s-3.09-1.35-4.63-2l.85-1.89c1.53.63,3.05,1.28,4.59,1.88s3.09,1.17,4.66,1.66A96.7,96.7,0,0,0,242.7,254a80.37,80.37,0,0,0,9.72,1.49c1.63.14,3.26.24,4.89.24a38.33,38.33,0,0,0,4.75-.24Z"/>
  </g>
  <g id="Ebene_19" data-name="Ebene 19">
    <path class="cls-13" d="M147.35,237.09a34.1,34.1,0,0,0,19.39-43.94,33.62,33.62,0,0,0-43.56-19.55,34.1,34.1,0,0,0,0,63.49l-22.71,59.69c-50.07-19.39-75.08-76-55.86-126.53S120,94.53,170.06,113.91s75.08,76,55.86,126.53a97.51,97.51,0,0,1-55.86,56.33l-22.71-59.68"/>
    <path class="cls-2" d="M235,163.53S217.82,187,219.49,203.07s5.62,32,3.35,37.32S206.75,257.66,209.57,260s15-.8,19.48-6.43,8.52-14.54,8.52-14.54-1.12,14.82-5.28,21S218.11,277,222,277.65s20.43-2.91,26.33-14.34S255.36,239,255.36,239s1.6,14.18,1.21,18.57-6.27,16.38-4.32,17.13,13.55-3.77,17.8-15.14,5-29.2,1.78-34.83-13.69-23-14.38-27.42c-2.12-13.61,5-38,5-38Z"/>
    <path class="cls-12" d="M236.68,161.12c-3.21,5.26-6.26,10.58-9,16a73.19,73.19,0,0,0-6.4,17,40.24,40.24,0,0,0-.88,8.92,63.54,63.54,0,0,0,.62,9c.4,3,1,6,1.62,9a85.82,85.82,0,0,1,1.53,9.23,36.25,36.25,0,0,1,.13,4.78c0,.8-.11,1.61-.2,2.41a15.92,15.92,0,0,1-.51,2.45,24,24,0,0,1-4.79,8.42c-2,2.45-4.31,4.59-6.35,6.77a9.85,9.85,0,0,0-2.26,3.27,1.17,1.17,0,0,0,.18,1.14,1.23,1.23,0,0,0,.44.39,3.17,3.17,0,0,0,.75.23,10.79,10.79,0,0,0,4.07-.38,25.59,25.59,0,0,0,4.14-1.48,29.2,29.2,0,0,0,7.4-4.82,35.56,35.56,0,0,0,5.42-7.09c1.57-2.59,3-5.29,4.34-8h0l.86-2.34,0,2.51a59.57,59.57,0,0,1-1.52,12.62,53.78,53.78,0,0,1-1.77,6.15,28.45,28.45,0,0,1-1.25,3,28,28,0,0,1-1.63,2.82c-2.33,3.62-5.16,6.82-7.57,10.13a16.84,16.84,0,0,0-1.53,2.48,2.9,2.9,0,0,0-.32,1c0,.23-.05,0,.08.16a2.51,2.51,0,0,0,1,.24,6.73,6.73,0,0,0,1.35,0,13.39,13.39,0,0,0,2.81-.5,35.54,35.54,0,0,0,10.64-5.64,43.56,43.56,0,0,0,8.71-8.43c2.36-3.08,3.73-7,4.91-10.92a101,101,0,0,0,2.61-12.13h0l.42-5.5,1.08,5.39A67.46,67.46,0,0,1,257,249.75c.07,1.72.1,3.45,0,5.17,0,.87-.08,1.72-.16,2.61a24.74,24.74,0,0,1-.44,2.6,87.24,87.24,0,0,1-3.2,9.81c-.28.79-.54,1.59-.73,2.36a6.05,6.05,0,0,0-.19,1.1,1.47,1.47,0,0,0,0,.39c0,.09,0,.06,0,0s0,0,.1,0l.53-.06a9.15,9.15,0,0,0,1.16-.23,14.5,14.5,0,0,0,2.27-.78,22.89,22.89,0,0,0,7.7-5.94,31.4,31.4,0,0,0,5.19-8.38,37.72,37.72,0,0,0,1.58-4.71c.23-.8.41-1.62.63-2.42s.36-1.63.51-2.45a43.18,43.18,0,0,0,.73-9.87,37.48,37.48,0,0,0-1.71-9.68,59,59,0,0,0-3.88-9.17c-1.53-3-3.17-5.94-4.85-8.91a93.41,93.41,0,0,1-4.74-9.25,26.52,26.52,0,0,1-1.64-5.18c-.09-.46-.16-.93-.21-1.4s0-.87-.08-1.31l-.15-2.61a69.51,69.51,0,0,1,.45-10.4A64.9,64.9,0,0,1,258,170.9a47.43,47.43,0,0,1,3.82-9.57,88.93,88.93,0,0,0-3.35,20,95.87,95.87,0,0,0,0,10l.21,2.5.11,1.23c.05.38.11.75.18,1.13a22.52,22.52,0,0,0,1.49,4.54c2.67,6,6.47,11.78,9.48,18a60.69,60.69,0,0,1,3.9,9.72,40.12,40.12,0,0,1,1.65,10.43,45.69,45.69,0,0,1-1.06,10.46c-.18.85-.39,1.7-.6,2.54s-.46,1.68-.72,2.51a41.7,41.7,0,0,1-1.8,4.93,33.8,33.8,0,0,1-5.72,8.83,24.71,24.71,0,0,1-8.49,6.28,16.17,16.17,0,0,1-2.58.83,11.89,11.89,0,0,1-1.35.24c-.25,0-.4.05-.74.06a1.9,1.9,0,0,1-1.11-.32,1.8,1.8,0,0,1-.67-1,3.48,3.48,0,0,1-.06-.88,7.51,7.51,0,0,1,.24-1.42c.23-.88.51-1.7.8-2.51a83.25,83.25,0,0,0,3.22-9.6,20.63,20.63,0,0,0,.43-2.43c.08-.8.14-1.66.18-2.49.09-1.68.08-3.37,0-5.05a63.27,63.27,0,0,0-1.15-10l1.5-.11h0a63.3,63.3,0,0,1-1.57,12.7,45.07,45.07,0,0,1-1.89,6.2c-.4,1-.87,2-1.36,3a23.55,23.55,0,0,1-1.82,2.83,43,43,0,0,1-9.42,8.95,38,38,0,0,1-11.62,5.91,16.92,16.92,0,0,1-3.38.55,9.91,9.91,0,0,1-1.8-.06,5,5,0,0,1-2-.63,2.65,2.65,0,0,1-1-1.08,2.74,2.74,0,0,1-.27-1.41,5.2,5.2,0,0,1,.59-2,17.89,17.89,0,0,1,1.86-2.82c2.64-3.4,5.5-6.42,7.83-9.81a25.9,25.9,0,0,0,1.61-2.59,27,27,0,0,0,1.25-2.77,54.65,54.65,0,0,0,2-5.86,65.54,65.54,0,0,0,2.14-12.27l.83.17h0a59.75,59.75,0,0,1-3.69,8.55,32.45,32.45,0,0,1-5.42,7.77,28.39,28.39,0,0,1-7.89,5.38,26.77,26.77,0,0,1-4.51,1.68,12.66,12.66,0,0,1-5.05.49,5.32,5.32,0,0,1-1.45-.44,3.79,3.79,0,0,1-1.31-1.09,3.72,3.72,0,0,1-.62-3.23,7.78,7.78,0,0,1,1.24-2.46,22.56,22.56,0,0,1,1.54-1.89c2.13-2.35,4.32-4.44,6.23-6.73a21.51,21.51,0,0,0,4.32-7.48,13.23,13.23,0,0,0,.43-2.06c.09-.73.16-1.46.19-2.19a31.45,31.45,0,0,0-.12-4.44,89.43,89.43,0,0,0-1.45-9c-.59-3-1.17-6.07-1.56-9.17a65.19,65.19,0,0,1-.54-9.37,39.2,39.2,0,0,1,1.13-9.38,75.1,75.1,0,0,1,7.06-17.26c1.49-2.71,3.1-5.36,4.84-7.92A85.41,85.41,0,0,1,236.68,161.12Z"/>
    <g id="Ebene_20" data-name="Ebene 20">
      <path class="cls-12" d="M230.55,316.3h-13c-.33,0-.5.17-.5.52v2.76a5.75,5.75,0,0,0,.4,2.12,5.13,5.13,0,0,0,1.13,1.74,5.45,5.45,0,0,0,1.67,1.18,5,5,0,0,0,2.09.44,4.64,4.64,0,0,0,3.3-1.39,11.78,11.78,0,0,0,1.17-1.25c.25-.32.45-.49.62-.49a.49.49,0,0,1,.25.06l2.09,1.07a.4.4,0,0,1,.29.41,2.61,2.61,0,0,1-.54,1.41,5.91,5.91,0,0,1-1.57,1.48,9.36,9.36,0,0,1-2.44,1.15,10.13,10.13,0,0,1-3.16.46,8.65,8.65,0,0,1-6.31-2.27,8.21,8.21,0,0,1-2.31-6.12v-6.91a7.93,7.93,0,0,1,.59-2.92A8.83,8.83,0,0,1,216.1,307a8.12,8.12,0,0,1,6.26-2.71,8.36,8.36,0,0,1,3.37.69,9.17,9.17,0,0,1,2.78,1.84,8.38,8.38,0,0,1,1.87,2.66,7.82,7.82,0,0,1,.67,3.15v3.12A.45.45,0,0,1,230.55,316.3Zm-2.83-3.63a5.25,5.25,0,0,0-.42-2.07,5.81,5.81,0,0,0-1.13-1.74,5,5,0,0,0-1.69-1.18,5.24,5.24,0,0,0-2.1-.44,5.16,5.16,0,0,0-2.12.44,5.14,5.14,0,0,0-2.77,2.87,5.75,5.75,0,0,0-.4,2.12v.72a.45.45,0,0,0,.5.51h9.63a.45.45,0,0,0,.5-.51Zm-18.07-2.46a.39.39,0,0,1-.2.05.55.55,0,0,1-.4-.2c-.36-.34-.71-.68-1-1a9.93,9.93,0,0,0-1-.92,5.15,5.15,0,0,0-1.17-.64,4.32,4.32,0,0,0-1.47-.23,5.11,5.11,0,0,0-2.11.44,5.3,5.3,0,0,0-1.66,1.15,5.16,5.16,0,0,0-1.09,1.72,5.55,5.55,0,0,0-.4,2.12v6.91a5.55,5.55,0,0,0,.4,2.12,5.11,5.11,0,0,0,1.12,1.74,5.29,5.29,0,0,0,1.66,1.18,4.91,4.91,0,0,0,2.08.44,4.58,4.58,0,0,0,3.28-1.39,11.78,11.78,0,0,0,1.17-1.25c.25-.32.45-.49.62-.49a.49.49,0,0,1,.25.06l2.08,1.07a.4.4,0,0,1,.3.41,2.56,2.56,0,0,1-.55,1.41,5.71,5.71,0,0,1-1.56,1.48,9.44,9.44,0,0,1-2.43,1.15,10.13,10.13,0,0,1-3.16.46,8.6,8.6,0,0,1-6.28-2.27,8.21,8.21,0,0,1-2.31-6.12v-6.91a8.11,8.11,0,0,1,2.31-6.09,8.63,8.63,0,0,1,6.28-2.25,10.25,10.25,0,0,1,5.59,1.58,6.08,6.08,0,0,1,1.59,1.44,2.4,2.4,0,0,1,.57,1.38c0,.17-.12.3-.35.41Zm-14.4-1.74a5,5,0,0,1-.77-.07,6.19,6.19,0,0,0-1.12-.08,5.44,5.44,0,0,0-2.11.41,4.85,4.85,0,0,0-1.66,1.15,5.52,5.52,0,0,0-1.49,3.81V327a.44.44,0,0,1-.49.51h-2.35c-.33,0-.49-.17-.49-.51v-21.6c0-.34.16-.51.49-.51h1.81c.33,0,.49.17.49.51v2.56c0,.38.13.56.39.56s.63-.27,1.09-.82a17.25,17.25,0,0,1,2-1.94,3.33,3.33,0,0,1,1.06-.62,3.49,3.49,0,0,1,1.22-.25h1.84a.45.45,0,0,1,.5.51V308Q195.7,308.47,195.25,308.47Zm-14.9,19h-1.83a.44.44,0,0,1-.5-.51v-2.2c0-.38-.13-.56-.4-.56s-.48.17-.74.51-.63.75-1.09,1.23a5.71,5.71,0,0,1-4.13,1.53,8.21,8.21,0,0,1-3.17-.61,7.67,7.67,0,0,1-2.59-1.72,7.86,7.86,0,0,1-1.71-2.66,9.18,9.18,0,0,1-.62-3.4V305.35a.45.45,0,0,1,.5-.51h2.33a.45.45,0,0,1,.5.51v13.72a5.38,5.38,0,0,0,.42,2.12,5.6,5.6,0,0,0,1.12,1.74,5.12,5.12,0,0,0,3.72,1.62,5.35,5.35,0,0,0,3.85-1.62,5.26,5.26,0,0,0,1.12-1.74,5.74,5.74,0,0,0,.39-2.12V305.35a.45.45,0,0,1,.5-.51h2.33a.45.45,0,0,1,.5.51V327A.45.45,0,0,1,180.35,327.46Zm-28.1.51A8.58,8.58,0,0,1,146,325.7a8.21,8.21,0,0,1-2.31-6.12v-6.91a8.11,8.11,0,0,1,2.31-6.09,8.61,8.61,0,0,1,6.28-2.25,9.89,9.89,0,0,1,3.58.61,8.18,8.18,0,0,1,2.73,1.72,7.47,7.47,0,0,1,1.76,2.63,9,9,0,0,1,.62,3.38v6.91a8.12,8.12,0,0,1-2.36,6.09A8.64,8.64,0,0,1,152.25,328Zm5.36-15.3a5.25,5.25,0,0,0-.42-2.07,5.78,5.78,0,0,0-1.12-1.74,5.13,5.13,0,0,0-1.7-1.18,5.28,5.28,0,0,0-4.22,0,5.47,5.47,0,0,0-1.67,1.15,5.16,5.16,0,0,0-1.09,1.72,5.55,5.55,0,0,0-.4,2.12v6.91a5.55,5.55,0,0,0,.4,2.12,5.11,5.11,0,0,0,1.12,1.74,5.45,5.45,0,0,0,1.67,1.18,5,5,0,0,0,2.1.44,5.19,5.19,0,0,0,2.09-.44,5.13,5.13,0,0,0,1.7-1.18,5.78,5.78,0,0,0,1.12-1.74,5.38,5.38,0,0,0,.42-2.12Zm-24.92,1.59c1.42.3,2.69.61,3.8.92a11.32,11.32,0,0,1,2.78,1.12A4.86,4.86,0,0,1,141,318a5.14,5.14,0,0,1,.6,2.61,7.07,7.07,0,0,1-2.14,5.33,8,8,0,0,1-5.76,2h-1.54a10,10,0,0,1-3.15-.46,9,9,0,0,1-2.41-1.15A6.39,6.39,0,0,1,125,324.9a2.5,2.5,0,0,1-.55-1.38c0-.13.12-.26.35-.36l1.94-1a.62.62,0,0,1,.25-.05c.1,0,.23.08.4.26l.94,1.07a6.63,6.63,0,0,0,1,.92,4.44,4.44,0,0,0,1.22.64,4.93,4.93,0,0,0,1.56.23h1.54a5,5,0,0,0,3.33-1.07,3.42,3.42,0,0,0,1.24-2.67c0-1.8-1.62-3-4.87-3.73-1.45-.31-2.73-.6-3.82-.87a10.34,10.34,0,0,1-2.78-1.08,4.41,4.41,0,0,1-1.71-1.69,5.53,5.53,0,0,1-.58-2.71,6.74,6.74,0,0,1,2.09-5.14,7.75,7.75,0,0,1,5.56-2h1.54a9.67,9.67,0,0,1,3.08.46,10.15,10.15,0,0,1,2.41,1.12,5.62,5.62,0,0,1,1.56,1.44,2.38,2.38,0,0,1,.55,1.33c0,.13-.12.25-.35.35L139,310a.45.45,0,0,1-.19.05.68.68,0,0,1-.4-.26,16.22,16.22,0,0,0-2.06-2,4.28,4.28,0,0,0-2.71-.79h-1.54a5.24,5.24,0,0,0-3.3.89,3,3,0,0,0-1.12,2.49,2.81,2.81,0,0,0,1.19,2.43A10.92,10.92,0,0,0,132.69,314.26Zm-17.56,14h-3.47c-.34,0-.5-.17-.5-.52V313.94a4.61,4.61,0,0,0-.35-1.76,4.78,4.78,0,0,0-.94-1.49,4.35,4.35,0,0,0-1.42-1,4.46,4.46,0,0,0-1.76-.35,4.22,4.22,0,0,0-3.18,1.35,4.56,4.56,0,0,0-1.29,3.25v13.82c0,.35-.16.52-.49.52H98.25c-.33,0-.5-.17-.5-.52v-22a.45.45,0,0,1,.5-.51h3a.45.45,0,0,1,.5.51v.62c0,.37.11.56.34.56a1.3,1.3,0,0,0,.65-.25c.26-.17.59-.37,1-.59a7,7,0,0,1,1.42-.59,6.39,6.39,0,0,1,1.91-.26,9.14,9.14,0,0,1,3.45.64,8.06,8.06,0,0,1,4.49,4.53,9.32,9.32,0,0,1,.65,3.53v13.82C115.63,328.11,115.46,328.28,115.13,328.28ZM95,317.53H82.61a.45.45,0,0,0-.5.51v2a4.61,4.61,0,0,0,.35,1.76,5,5,0,0,0,.94,1.49,4.18,4.18,0,0,0,1.42,1,4.3,4.3,0,0,0,1.76.36,4.18,4.18,0,0,0,1.62-.3,2.8,2.8,0,0,0,1.11-.82c.56-.68,1-1.21,1.22-1.59s.45-.56.62-.56a.69.69,0,0,1,.3.1l3.13,1.64c.19.1.29.22.29.36a3.5,3.5,0,0,1-.47,1.15,8.05,8.05,0,0,1-1.61,2,8.6,8.6,0,0,1-6.21,2.15,10.35,10.35,0,0,1-3.67-.62,7.89,7.89,0,0,1-2.81-1.76,8,8,0,0,1-1.81-2.77,9.46,9.46,0,0,1-.65-3.55v-6.66a8.21,8.21,0,0,1,.7-3.32,8.63,8.63,0,0,1,1.91-2.77,9.67,9.67,0,0,1,2.83-1.89,8.82,8.82,0,0,1,7,0,9.51,9.51,0,0,1,2.85,1.89,8.63,8.63,0,0,1,1.91,2.77,8,8,0,0,1,.7,3.32V317A.45.45,0,0,1,95,317.53Zm-4.34-6a4.62,4.62,0,0,0-1-1.36,5.27,5.27,0,0,0-1.42-.95,4.2,4.2,0,0,0-1.69-.36,4.41,4.41,0,0,0-3.13,1.34,5,5,0,0,0-1,1.4,3.77,3.77,0,0,0-.38,1.62,1.55,1.55,0,0,0,.08.58q.07.18.42.18h7.94c.23,0,.38-.06.43-.2a2.18,2.18,0,0,0,.07-.67A3.55,3.55,0,0,0,90.68,311.49ZM73.8,325.79a8.35,8.35,0,0,1-2.61,1.82,7.88,7.88,0,0,1-3.23.67,6.44,6.44,0,0,1-1.91-.26,7.21,7.21,0,0,1-1.41-.59c-.4-.22-.72-.42-1-.59a1.18,1.18,0,0,0-.52-.25c-.27,0-.4.18-.4.56v12.13a.45.45,0,0,1-.5.51H58.78a.45.45,0,0,1-.5-.51V305.75a.45.45,0,0,1,.5-.51h3c.33,0,.49.17.49.51v.62c0,.37.12.56.35.56a1.3,1.3,0,0,0,.65-.25c.26-.17.59-.37,1-.59a7.12,7.12,0,0,1,1.41-.59,6.51,6.51,0,0,1,1.92-.26,9.21,9.21,0,0,1,3.45.64,8.06,8.06,0,0,1,4.49,4.53,9.32,9.32,0,0,1,.65,3.53v5.63a9.38,9.38,0,0,1-.63,3.49A8.1,8.1,0,0,1,73.8,325.79Zm-2.11-11.85a4.61,4.61,0,0,0-.35-1.76,5,5,0,0,0-.94-1.49,4.35,4.35,0,0,0-1.42-1,4.49,4.49,0,0,0-1.76-.35A4.22,4.22,0,0,0,64,310.69a4.56,4.56,0,0,0-1.29,3.25v5.63A4.53,4.53,0,0,0,64,322.82a4.2,4.2,0,0,0,3.18,1.36,4.33,4.33,0,0,0,1.76-.36,4.2,4.2,0,0,0,1.42-1,4.92,4.92,0,0,0,.94-1.48,4.62,4.62,0,0,0,.35-1.77Zm-18.1,12.47a7.8,7.8,0,0,1-2.81,1.76,11.2,11.2,0,0,1-7.35,0,7.85,7.85,0,0,1-2.8-1.76,8,8,0,0,1-1.81-2.77,9.46,9.46,0,0,1-.65-3.55v-6.66a9.55,9.55,0,0,1,.65-3.56,8,8,0,0,1,1.81-2.76,7.87,7.87,0,0,1,2.8-1.77,10.45,10.45,0,0,1,3.68-.61,9.92,9.92,0,0,1,3.67.64,8.15,8.15,0,0,1,2.81,1.79,8,8,0,0,1,1.81,2.74,9.32,9.32,0,0,1,.65,3.53v6.66a9.46,9.46,0,0,1-.65,3.55A8,8,0,0,1,53.59,326.41Zm-2-13a4.56,4.56,0,0,0-1.29-3.25,4.4,4.4,0,0,0-6.36,0,4.56,4.56,0,0,0-1.29,3.25v6.66a4.61,4.61,0,0,0,.35,1.76,4.78,4.78,0,0,0,.94,1.49,4.18,4.18,0,0,0,1.42,1,4.3,4.3,0,0,0,1.76.36,4.22,4.22,0,0,0,3.18-1.35,4.56,4.56,0,0,0,1.29-3.25Z"/>
    </g>
  </g>
</svg>
